# xmcd
#
# Track frame offsets:
#	150
#	16159
#	36793
#	61308
#	76767
#	93993
#	106662
#	121415
#	138499
#	159614
#	179349
#	205267
#
# Disc length: 3067 seconds
#
# Revision: 1
# Processed by: cddbd v1.5.2PL0 Copyright (c) Steve Scherf et al.
# Submitted via: audiograbber 1.83.01
#
DISCID=920bf90c
DTITLE=Ewan Blackledge - Electric Beret
DYEAR=1900
DGENRE=
TTITLE0=Raise Your Windows
TTITLE1=Little Gueen Of Spades
TTITLE2=Careless Love
TTITLE3=I Want To Comfort You
TTITLE4=Roll On Babe
TTITLE5=Payday
TTITLE6=Hold On
TTITLE7=Travelling Riverside Blues
TTITLE8=Long Distance Love
TTITLE9=Get Down Baby
TTITLE10=Waiting On A Friend
TTITLE11=It´s All Over Now Baby Blue
EXTD=
EXTT0=
EXTT1=
EXTT2=
EXTT3=
EXTT4=
EXTT5=
EXTT6=
EXTT7=
EXTT8=
EXTT9=
EXTT10=
EXTT11=
PLAYORDER=
